<svg width="111" height="20" viewBox="0 0 111 20" fill="none" xmlns="http://www.w3.org/2000/svg">
<path d="M16.05 12.275C15.85 14.525 15.0667 16.2833 13.7 17.55C12.35 18.8 10.5667 19.425 8.35 19.425C5.81667 19.425 3.80833 18.5917 2.325 16.925C0.841667 15.2417 0.1 12.975 0.1 10.125C0.1 7.45833 0.841667 5.24167 2.325 3.475C3.825 1.69167 5.89167 0.799999 8.525 0.799999C10.4083 0.799999 12.0667 1.30833 13.5 2.325C14.9333 3.34167 15.7333 4.75 15.9 6.55H13.55C13.2833 5.38333 12.7 4.475 11.8 3.825C10.9 3.15833 9.79167 2.825 8.475 2.825C6.49167 2.825 4.99167 3.525 3.975 4.925C2.975 6.325 2.475 8.05 2.475 10.1C2.475 12.3667 3.00833 14.15 4.075 15.45C5.14167 16.75 6.6 17.4 8.45 17.4C9.96667 17.4 11.175 16.9667 12.075 16.1C12.975 15.2167 13.5167 13.9417 13.7 12.275H16.05ZM20.892 1.2V3.8H18.742V1.2H20.892ZM20.892 6.1V19H18.742V6.1H20.892ZM26.184 6.1V8.1C27.2507 6.53333 28.7173 5.75 30.584 5.75C32.1007 5.75 33.1923 6.15 33.859 6.95C34.5423 7.73333 34.884 8.89167 34.884 10.425V19H32.759V11.4C32.759 10.7667 32.734 10.275 32.684 9.925C32.6507 9.55833 32.5507 9.175 32.384 8.775C32.2173 8.35833 31.934 8.05833 31.534 7.875C31.134 7.69167 30.6173 7.6 29.984 7.6C27.534 7.6 26.309 9.15 26.309 12.25V19H24.184V6.1H26.184ZM49.1006 14.925C48.4506 17.925 46.5756 19.425 43.4756 19.425C41.5756 19.425 40.0839 18.8333 39.0006 17.65C37.9339 16.4667 37.4006 14.825 37.4006 12.725C37.4006 10.6417 37.9506 8.95833 39.0506 7.675C40.1673 6.375 41.6173 5.725 43.4006 5.725C45.3839 5.725 46.8506 6.4 47.8006 7.75C48.7673 9.08333 49.2506 10.775 49.2506 12.825V13.125H39.5506L39.5256 13.275C39.5256 14.6417 39.8839 15.7167 40.6006 16.5C41.3173 17.2833 42.3006 17.675 43.5506 17.675C44.4839 17.675 45.2173 17.4583 45.7506 17.025C46.3006 16.5917 46.7256 15.8917 47.0256 14.925H49.1006ZM47.0506 11.4C46.9506 10.1667 46.5756 9.20833 45.9256 8.525C45.2756 7.825 44.4173 7.475 43.3506 7.475C42.3173 7.475 41.4589 7.825 40.7756 8.525C40.0923 9.225 39.6839 10.1833 39.5506 11.4H47.0506Z" fill="url(#paint0_linear_15_11)"/>
<path d="M49.8533 1.2H52.4533L57.5783 16.7L62.7533 1.2H65.2283L58.8783 19H56.1783L49.8533 1.2ZM76.4443 14.925C75.7943 17.925 73.9193 19.425 70.8193 19.425C68.9193 19.425 67.4277 18.8333 66.3443 17.65C65.2777 16.4667 64.7443 14.825 64.7443 12.725C64.7443 10.6417 65.2943 8.95833 66.3943 7.675C67.511 6.375 68.961 5.725 70.7443 5.725C72.7277 5.725 74.1943 6.4 75.1443 7.75C76.111 9.08333 76.5943 10.775 76.5943 12.825V13.125H66.8943L66.8693 13.275C66.8693 14.6417 67.2277 15.7167 67.9443 16.5C68.661 17.2833 69.6443 17.675 70.8943 17.675C71.8277 17.675 72.561 17.4583 73.0943 17.025C73.6443 16.5917 74.0693 15.8917 74.3693 14.925H76.4443ZM74.3943 11.4C74.2943 10.1667 73.9193 9.20833 73.2693 8.525C72.6193 7.825 71.761 7.475 70.6943 7.475C69.661 7.475 68.8027 7.825 68.1193 8.525C67.436 9.225 67.0277 10.1833 66.8943 11.4H74.3943ZM85.5721 5.8V8C85.4221 7.98333 85.2387 7.975 85.0221 7.975C84.3387 7.975 83.7471 8.08333 83.2471 8.3C82.7471 8.5 82.3471 8.76667 82.0471 9.1C81.7637 9.43333 81.5304 9.85 81.3471 10.35C81.1637 10.85 81.0387 11.35 80.9721 11.85C80.9221 12.35 80.8971 12.9167 80.8971 13.55V19H78.7721V6.1H80.7971V8.875C81.6471 6.825 83.2387 5.8 85.5721 5.8ZM96.7473 9.85H94.6223C94.4889 8.28333 93.4389 7.5 91.4723 7.5C90.6556 7.5 90.0139 7.65833 89.5473 7.975C89.0806 8.29167 88.8473 8.71667 88.8473 9.25C88.8473 9.4 88.8639 9.55 88.8973 9.7C88.9306 9.83333 88.9889 9.95833 89.0723 10.075C89.1723 10.175 89.2556 10.2667 89.3223 10.35C89.4056 10.4333 89.5306 10.5167 89.6973 10.6C89.8806 10.6667 90.0139 10.725 90.0973 10.775C90.1973 10.825 90.3639 10.8833 90.5973 10.95C90.8473 11 91.0223 11.0417 91.1223 11.075C91.2223 11.0917 91.4139 11.1333 91.6973 11.2C91.9973 11.2667 92.1889 11.3083 92.2723 11.325C92.8889 11.4583 93.3473 11.5667 93.6473 11.65C93.9639 11.7333 94.3889 11.8917 94.9223 12.125C95.4723 12.3417 95.8889 12.575 96.1723 12.825C96.4556 13.0583 96.7056 13.3917 96.9223 13.825C97.1556 14.2417 97.2723 14.7167 97.2723 15.25C97.2723 16.5 96.7806 17.5083 95.7973 18.275C94.8306 19.025 93.5389 19.4 91.9223 19.4C90.1723 19.4 88.8223 19.0167 87.8723 18.25C86.9389 17.4833 86.4389 16.375 86.3723 14.925H88.4723C88.5889 16.7417 89.7556 17.65 91.9723 17.65C92.9223 17.65 93.6806 17.4583 94.2473 17.075C94.8306 16.675 95.1223 16.15 95.1223 15.5C95.1223 15.0667 94.9723 14.7083 94.6723 14.425C94.3723 14.1417 94.0389 13.9417 93.6723 13.825C93.3056 13.6917 92.7806 13.5417 92.0973 13.375C91.9973 13.3583 91.9223 13.3417 91.8723 13.325C91.7223 13.2917 91.3973 13.225 90.8973 13.125C90.4139 13.0083 90.0639 12.9167 89.8473 12.85C89.6306 12.7833 89.3139 12.6833 88.8973 12.55C88.4973 12.4 88.1973 12.25 87.9973 12.1C87.7973 11.9333 87.5723 11.7333 87.3223 11.5C87.0889 11.25 86.9223 10.9667 86.8223 10.65C86.7223 10.3167 86.6723 9.94167 86.6723 9.525C86.6723 8.35833 87.1139 7.43333 87.9973 6.75C88.8973 6.06667 90.0973 5.725 91.5973 5.725C93.1139 5.725 94.3473 6.08333 95.2973 6.8C96.2639 7.51667 96.7473 8.53333 96.7473 9.85ZM110.697 14.925C110.047 17.925 108.172 19.425 105.072 19.425C103.172 19.425 101.681 18.8333 100.597 17.65C99.5306 16.4667 98.9973 14.825 98.9973 12.725C98.9973 10.6417 99.5473 8.95833 100.647 7.675C101.764 6.375 103.214 5.725 104.997 5.725C106.981 5.725 108.447 6.4 109.397 7.75C110.364 9.08333 110.847 10.775 110.847 12.825V13.125H101.147L101.122 13.275C101.122 14.6417 101.481 15.7167 102.197 16.5C102.914 17.2833 103.897 17.675 105.147 17.675C106.081 17.675 106.814 17.4583 107.347 17.025C107.897 16.5917 108.322 15.8917 108.622 14.925H110.697ZM108.647 11.4C108.547 10.1667 108.172 9.20833 107.522 8.525C106.872 7.825 106.014 7.475 104.947 7.475C103.914 7.475 103.056 7.825 102.372 8.525C101.689 9.225 101.281 10.1833 101.147 11.4H108.647Z" fill="white"/>
<defs>
<linearGradient id="paint0_linear_15_11" x1="41" y1="-4.15542e-06" x2="-0.999999" y2="19" gradientUnits="userSpaceOnUse">
<stop stop-color="#0D0D1B"/>
<stop offset="1" stop-color="#F88973"/>
</linearGradient>
</defs>
</svg>
